<mxfile host="app.diagrams.net" agent="Mozilla/5.0 (Windows NT 10.0; Win64; x64) AppleWebKit/537.36 (KHTML, like Gecko) Chrome/140.0.0.0 Safari/537.36 Edg/140.0.0.0" version="26.2.12">
  <diagram name="Page-1" id="4Udv0RNmNeaUR12d-d9g">
    <mxGraphModel dx="542" dy="286" grid="1" gridSize="10" guides="1" tooltips="1" connect="1" arrows="1" fold="1" page="1" pageScale="1" pageWidth="827" pageHeight="1169" math="0" shadow="0">
      <root>
        <mxCell id="0" />
        <mxCell id="1" parent="0" />
        <mxCell id="lmlUhCv4QagVBwB2Gt0P-1" value="&lt;font style=&quot;font-size: 10px;&quot;&gt;Place Order&lt;/font&gt;" style="ellipse;whiteSpace=wrap;html=1;" vertex="1" parent="1">
          <mxGeometry x="354" y="225" width="120" height="40" as="geometry" />
        </mxCell>
        <mxCell id="lmlUhCv4QagVBwB2Gt0P-2" value="&lt;font style=&quot;font-size: 10px;&quot;&gt;Track Order Status&lt;/font&gt;" style="ellipse;whiteSpace=wrap;html=1;" vertex="1" parent="1">
          <mxGeometry x="354" y="275" width="120" height="40" as="geometry" />
        </mxCell>
        <mxCell id="lmlUhCv4QagVBwB2Gt0P-3" value="&lt;font style=&quot;font-size: 10px;&quot;&gt;Manage Inventory&lt;/font&gt;" style="ellipse;whiteSpace=wrap;html=1;" vertex="1" parent="1">
          <mxGeometry x="351" y="380" width="120" height="40" as="geometry" />
        </mxCell>
        <mxCell id="lmlUhCv4QagVBwB2Gt0P-4" value="&lt;font style=&quot;font-size: 10px;&quot;&gt;View Sales Reports&lt;/font&gt;" style="ellipse;whiteSpace=wrap;html=1;" vertex="1" parent="1">
          <mxGeometry x="354" y="325" width="120" height="40" as="geometry" />
        </mxCell>
        <mxCell id="lmlUhCv4QagVBwB2Gt0P-5" value="&lt;font style=&quot;font-size: 10px;&quot;&gt;Manage Staffs&lt;/font&gt;" style="ellipse;whiteSpace=wrap;html=1;" vertex="1" parent="1">
          <mxGeometry x="351" y="430" width="120" height="40" as="geometry" />
        </mxCell>
        <mxCell id="lmlUhCv4QagVBwB2Gt0P-6" value="&lt;font style=&quot;font-size: 10px;&quot;&gt;User Authentication&lt;/font&gt;" style="ellipse;whiteSpace=wrap;html=1;" vertex="1" parent="1">
          <mxGeometry x="354" y="180" width="120" height="40" as="geometry" />
        </mxCell>
        <mxCell id="lmlUhCv4QagVBwB2Gt0P-9" value="" style="group" vertex="1" connectable="0" parent="1">
          <mxGeometry x="241" y="300" width="65" height="90" as="geometry" />
        </mxCell>
        <mxCell id="lmlUhCv4QagVBwB2Gt0P-7" value="" style="shape=actor;whiteSpace=wrap;html=1;" vertex="1" parent="lmlUhCv4QagVBwB2Gt0P-9">
          <mxGeometry x="5" width="40" height="60" as="geometry" />
        </mxCell>
        <mxCell id="lmlUhCv4QagVBwB2Gt0P-8" value="Customer" style="text;html=1;align=center;verticalAlign=middle;resizable=0;points=[];autosize=1;strokeColor=none;fillColor=none;" vertex="1" parent="lmlUhCv4QagVBwB2Gt0P-9">
          <mxGeometry x="-15" y="60" width="80" height="30" as="geometry" />
        </mxCell>
        <mxCell id="lmlUhCv4QagVBwB2Gt0P-11" style="rounded=0;orthogonalLoop=1;jettySize=auto;html=1;entryX=0;entryY=0.5;entryDx=0;entryDy=0;" edge="1" parent="1" source="lmlUhCv4QagVBwB2Gt0P-7" target="lmlUhCv4QagVBwB2Gt0P-1">
          <mxGeometry relative="1" as="geometry" />
        </mxCell>
        <mxCell id="lmlUhCv4QagVBwB2Gt0P-12" style="rounded=0;orthogonalLoop=1;jettySize=auto;html=1;entryX=0;entryY=0.5;entryDx=0;entryDy=0;" edge="1" parent="1" source="lmlUhCv4QagVBwB2Gt0P-7" target="lmlUhCv4QagVBwB2Gt0P-2">
          <mxGeometry relative="1" as="geometry" />
        </mxCell>
        <mxCell id="lmlUhCv4QagVBwB2Gt0P-13" value="" style="group" vertex="1" connectable="0" parent="1">
          <mxGeometry x="521" y="225" width="65" height="90" as="geometry" />
        </mxCell>
        <mxCell id="lmlUhCv4QagVBwB2Gt0P-14" value="" style="shape=actor;whiteSpace=wrap;html=1;" vertex="1" parent="lmlUhCv4QagVBwB2Gt0P-13">
          <mxGeometry x="5" width="40" height="60" as="geometry" />
        </mxCell>
        <mxCell id="lmlUhCv4QagVBwB2Gt0P-15" value="Cashier" style="text;html=1;align=center;verticalAlign=middle;resizable=0;points=[];autosize=1;strokeColor=none;fillColor=none;" vertex="1" parent="lmlUhCv4QagVBwB2Gt0P-13">
          <mxGeometry x="-5" y="60" width="60" height="30" as="geometry" />
        </mxCell>
        <mxCell id="lmlUhCv4QagVBwB2Gt0P-16" value="" style="group" vertex="1" connectable="0" parent="1">
          <mxGeometry x="521" y="350" width="65" height="90" as="geometry" />
        </mxCell>
        <mxCell id="lmlUhCv4QagVBwB2Gt0P-17" value="" style="shape=actor;whiteSpace=wrap;html=1;" vertex="1" parent="lmlUhCv4QagVBwB2Gt0P-16">
          <mxGeometry x="5" width="40" height="60" as="geometry" />
        </mxCell>
        <mxCell id="lmlUhCv4QagVBwB2Gt0P-18" value="Manager" style="text;html=1;align=center;verticalAlign=middle;resizable=0;points=[];autosize=1;strokeColor=none;fillColor=none;" vertex="1" parent="lmlUhCv4QagVBwB2Gt0P-16">
          <mxGeometry x="-10" y="60" width="70" height="30" as="geometry" />
        </mxCell>
        <mxCell id="lmlUhCv4QagVBwB2Gt0P-19" style="rounded=0;orthogonalLoop=1;jettySize=auto;html=1;entryX=1;entryY=0.425;entryDx=0;entryDy=0;entryPerimeter=0;" edge="1" parent="1" source="lmlUhCv4QagVBwB2Gt0P-14" target="lmlUhCv4QagVBwB2Gt0P-2">
          <mxGeometry relative="1" as="geometry" />
        </mxCell>
        <mxCell id="lmlUhCv4QagVBwB2Gt0P-20" style="rounded=0;orthogonalLoop=1;jettySize=auto;html=1;entryX=0;entryY=0.5;entryDx=0;entryDy=0;" edge="1" parent="1" source="lmlUhCv4QagVBwB2Gt0P-7" target="lmlUhCv4QagVBwB2Gt0P-6">
          <mxGeometry relative="1" as="geometry" />
        </mxCell>
        <mxCell id="lmlUhCv4QagVBwB2Gt0P-21" style="rounded=0;orthogonalLoop=1;jettySize=auto;html=1;entryX=1;entryY=0.5;entryDx=0;entryDy=0;" edge="1" parent="1" source="lmlUhCv4QagVBwB2Gt0P-14" target="lmlUhCv4QagVBwB2Gt0P-6">
          <mxGeometry relative="1" as="geometry">
            <mxPoint x="471" y="467" as="targetPoint" />
          </mxGeometry>
        </mxCell>
        <mxCell id="lmlUhCv4QagVBwB2Gt0P-22" style="rounded=0;orthogonalLoop=1;jettySize=auto;html=1;entryX=1;entryY=0.5;entryDx=0;entryDy=0;" edge="1" parent="1" source="lmlUhCv4QagVBwB2Gt0P-17" target="lmlUhCv4QagVBwB2Gt0P-3">
          <mxGeometry relative="1" as="geometry" />
        </mxCell>
        <mxCell id="lmlUhCv4QagVBwB2Gt0P-23" style="rounded=0;orthogonalLoop=1;jettySize=auto;html=1;entryX=1;entryY=0.5;entryDx=0;entryDy=0;" edge="1" parent="1" source="lmlUhCv4QagVBwB2Gt0P-17" target="lmlUhCv4QagVBwB2Gt0P-4">
          <mxGeometry relative="1" as="geometry" />
        </mxCell>
        <mxCell id="lmlUhCv4QagVBwB2Gt0P-24" style="rounded=0;orthogonalLoop=1;jettySize=auto;html=1;entryX=1;entryY=0.5;entryDx=0;entryDy=0;" edge="1" parent="1" source="lmlUhCv4QagVBwB2Gt0P-17" target="lmlUhCv4QagVBwB2Gt0P-5">
          <mxGeometry relative="1" as="geometry" />
        </mxCell>
        <mxCell id="lmlUhCv4QagVBwB2Gt0P-25" style="rounded=0;orthogonalLoop=1;jettySize=auto;html=1;entryX=1;entryY=0.5;entryDx=0;entryDy=0;" edge="1" parent="1" source="lmlUhCv4QagVBwB2Gt0P-17" target="lmlUhCv4QagVBwB2Gt0P-6">
          <mxGeometry relative="1" as="geometry" />
        </mxCell>
        <mxCell id="lmlUhCv4QagVBwB2Gt0P-72" value="&lt;font style=&quot;font-size: 10px;&quot;&gt;Browse Menu&lt;/font&gt;" style="ellipse;whiteSpace=wrap;html=1;" vertex="1" parent="1">
          <mxGeometry x="354" y="130" width="120" height="40" as="geometry" />
        </mxCell>
        <mxCell id="lmlUhCv4QagVBwB2Gt0P-73" style="rounded=0;orthogonalLoop=1;jettySize=auto;html=1;entryX=0;entryY=0.5;entryDx=0;entryDy=0;" edge="1" parent="1" source="lmlUhCv4QagVBwB2Gt0P-7" target="lmlUhCv4QagVBwB2Gt0P-72">
          <mxGeometry relative="1" as="geometry">
            <mxPoint x="330" y="160" as="targetPoint" />
            <Array as="points">
              <mxPoint x="310" y="220" />
            </Array>
          </mxGeometry>
        </mxCell>
      </root>
    </mxGraphModel>
  </diagram>
</mxfile>
